<svg width="30" height="30" fill="none" xmlns="http://www.w3.org/2000/svg"><path d="M24.634 29.486a90.615 90.615 0 01-19.268 0 5.463 5.463 0 01-4.852-4.852 90.611 90.611 0 010-19.268A5.463 5.463 0 015.366.514a90.611 90.611 0 0119.268 0 5.463 5.463 0 014.852 4.852 90.613 90.613 0 010 19.268 5.462 5.462 0 01-4.852 4.852z" fill="url(#paint0_linear_366_376)"/><path d="M27.855 6.451a4.847 4.847 0 00-4.306-4.306 80.437 80.437 0 00-17.098 0 4.848 4.848 0 00-4.306 4.306 80.435 80.435 0 000 17.098 4.848 4.848 0 004.306 4.306 80.416 80.416 0 0017.098 0 4.847 4.847 0 004.306-4.306 80.402 80.402 0 000-17.098z" fill="url(#paint1_linear_366_376)"/><path d="M.45 24.012c.02.208.041.415.064.622a5.463 5.463 0 004.852 4.853 90.613 90.613 0 0019.268 0 5.462 5.462 0 004.852-4.853c.023-.207.044-.414.065-.622H.45z" fill="url(#paint2_linear_366_376)"/><path d="M29.163 25.99L9.803 6.63A2.365 2.365 0 106.49 9.944l19.29 19.295a5.468 5.468 0 003.382-3.247z" fill="url(#paint3_linear_366_376)"/><path d="M9.911 11.982H5.94v12.316l5.636 5.637c4.354.164 8.711.015 13.059-.449a5.448 5.448 0 002.106-.675L9.91 11.982z" fill="url(#paint4_linear_366_376)"/><path d="M23.403 13.014a3.962 3.962 0 00-2.936-1.296c-1.84 0-3.027.646-3.733 1.246l-.779-.981h-3.66v12.315l5.654 5.654a90.92 90.92 0 006.685-.465 5.462 5.462 0 004.852-4.853c.183-1.71.316-3.422.402-5.135l-6.485-6.485z" fill="url(#paint5_linear_366_376)"/><path d="M5.939 11.982H9.91v12.316H5.94V11.982zm14.528-.264c-2.911 0-4.19 1.618-4.512 2.11v-1.845h-3.66v12.315h3.973v-6.186c0-1.787.822-3.178 2.383-3.178 1.56 0 1.816 1.73 1.816 3.86v5.504h3.973v-8.607a3.973 3.973 0 00-3.973-3.973zM10.29 8.067a2.364 2.364 0 11-4.73 0 2.364 2.364 0 014.73 0z" fill="#fff"/><defs><linearGradient id="paint0_linear_366_376" x1="9.961" y1="4.218" x2="17.548" y2="20.452" gradientUnits="userSpaceOnUse"><stop stop-color="#0077B5"/><stop offset="1" stop-color="#0066B2"/></linearGradient><linearGradient id="paint1_linear_366_376" x1="21.345" y1="18.404" x2="-22.241" y2="-4.978" gradientUnits="userSpaceOnUse"><stop stop-color="#0066B2" stop-opacity="0"/><stop offset="1" stop-color="#07485E"/></linearGradient><linearGradient id="paint2_linear_366_376" x1="15" y1="24.365" x2="15" y2="30.635" gradientUnits="userSpaceOnUse"><stop stop-color="#0066B2" stop-opacity="0"/><stop offset="1" stop-color="#07485E"/></linearGradient><linearGradient id="paint3_linear_366_376" x1="15.9" y1="16.041" x2="4.683" y2="4.825" gradientUnits="userSpaceOnUse"><stop stop-color="#0066B2" stop-opacity="0"/><stop offset="1" stop-color="#07485E"/></linearGradient><linearGradient id="paint4_linear_366_376" x1="22.485" y1="26.462" x2="-.103" y2="15.874" gradientUnits="userSpaceOnUse"><stop stop-color="#0066B2" stop-opacity="0"/><stop offset="1" stop-color="#07485E"/></linearGradient><linearGradient id="paint5_linear_366_376" x1="27.98" y1="28.785" x2="12.244" y2="13.049" gradientUnits="userSpaceOnUse"><stop stop-color="#0066B2" stop-opacity="0"/><stop offset="1" stop-color="#07485E"/></linearGradient></defs></svg>