<svg width="652" height="650" fill="none" xmlns="http://www.w3.org/2000/svg"><g opacity=".7"><path d="M347.447 367.91l49.209-49.209-69.127-69.127-69.126 69.127 99.589 99.589 99.589-99.589-130.052-130.052-130.051 130.052 160.514 160.514 160.514-160.514-190.977-190.977-190.976 190.977 190.976 190.977" stroke="url(#paint0_linear_351_3298)" stroke-opacity=".95"/><circle cx="328.23" cy="129.2" r="6.974" fill="url(#paint1_linear_351_3298)"/><circle cx="328.23" cy="192.468" r="6.974" fill="url(#paint2_linear_351_3298)"/><circle cx="358.692" cy="412.736" r="6.974" fill="url(#paint3_linear_351_3298)"/><circle cx="328.23" cy="253.393" r="6.974" fill="url(#paint4_linear_351_3298)"/><circle cx="358.692" cy="476.004" r="6.974" fill="url(#paint5_linear_351_3298)"/><circle cx="391.499" cy="319.005" r="6.974" fill="url(#paint6_linear_351_3298)"/><circle cx="140.769" cy="319.005" r="6.974" fill="url(#paint7_linear_351_3298)"/><circle cx="452.423" cy="319.005" r="6.974" fill="url(#paint8_linear_351_3298)"/><circle cx="201.694" cy="319.005" r="6.974" fill="url(#paint9_linear_351_3298)"/><circle cx="515.692" cy="319.005" r="6.974" fill="url(#paint10_linear_351_3298)"/><circle cx="264.961" cy="319.005" r="6.974" fill="url(#paint11_linear_351_3298)"/><g filter="url(#filter0_f_351_3298)"><path d="M145.473 317.529l117.163-115.992 11.718 244.872-128.881-128.88z" fill="url(#paint12_linear_351_3298)" fill-opacity=".2"/></g><g filter="url(#filter1_f_351_3298)"><path d="M505.702 317.529L388.539 201.537l-11.718 244.872 128.881-128.88z" fill="url(#paint13_linear_351_3298)" fill-opacity=".2"/></g></g><path d="M322.653 395.613l82.427-33.505-47.066-115.791-115.791 47.066 67.807 166.818 166.818-67.807L388.3 174.549l-217.845 88.549 109.29 268.871 268.871-109.29-130.031-319.897-319.897 130.03 130.03 319.898" stroke="#36CEF0" opacity=".3"/><defs><linearGradient id="paint0_linear_351_3298" x1="151.937" y1="294.981" x2="507.079" y2="299.495" gradientUnits="userSpaceOnUse"><stop stop-color="#6CA9D6"/><stop offset=".557" stop-color="#47CAD5"/><stop offset="1" stop-color="#A0BB69"/></linearGradient><linearGradient id="paint1_linear_351_3298" x1="328.23" y1="122.226" x2="328.23" y2="136.174" gradientUnits="userSpaceOnUse"><stop stop-color="#5194E2"/><stop offset="1" stop-color="#36CEF0"/></linearGradient><linearGradient id="paint2_linear_351_3298" x1="328.23" y1="185.494" x2="328.23" y2="199.442" gradientUnits="userSpaceOnUse"><stop stop-color="#5194E2"/><stop offset="1" stop-color="#36CEF0"/></linearGradient><linearGradient id="paint3_linear_351_3298" x1="358.692" y1="405.762" x2="358.692" y2="419.71" gradientUnits="userSpaceOnUse"><stop stop-color="#5194E2"/><stop offset="1" stop-color="#36CEF0"/></linearGradient><linearGradient id="paint4_linear_351_3298" x1="328.23" y1="246.419" x2="328.23" y2="260.367" gradientUnits="userSpaceOnUse"><stop stop-color="#5194E2"/><stop offset="1" stop-color="#36CEF0"/></linearGradient><linearGradient id="paint5_linear_351_3298" x1="358.692" y1="469.03" x2="358.692" y2="482.978" gradientUnits="userSpaceOnUse"><stop stop-color="#5194E2"/><stop offset="1" stop-color="#36CEF0"/></linearGradient><linearGradient id="paint6_linear_351_3298" x1="391.499" y1="312.031" x2="391.499" y2="325.979" gradientUnits="userSpaceOnUse"><stop stop-color="#5194E2"/><stop offset="1" stop-color="#36CEF0"/></linearGradient><linearGradient id="paint7_linear_351_3298" x1="140.769" y1="312.031" x2="140.769" y2="325.979" gradientUnits="userSpaceOnUse"><stop stop-color="#5194E2"/><stop offset="1" stop-color="#36CEF0"/></linearGradient><linearGradient id="paint8_linear_351_3298" x1="452.423" y1="312.031" x2="452.423" y2="325.979" gradientUnits="userSpaceOnUse"><stop stop-color="#5194E2"/><stop offset="1" stop-color="#36CEF0"/></linearGradient><linearGradient id="paint9_linear_351_3298" x1="201.694" y1="312.031" x2="201.694" y2="325.979" gradientUnits="userSpaceOnUse"><stop stop-color="#5194E2"/><stop offset="1" stop-color="#36CEF0"/></linearGradient><linearGradient id="paint10_linear_351_3298" x1="515.692" y1="312.031" x2="515.692" y2="325.979" gradientUnits="userSpaceOnUse"><stop stop-color="#5194E2"/><stop offset="1" stop-color="#36CEF0"/></linearGradient><linearGradient id="paint11_linear_351_3298" x1="264.961" y1="312.031" x2="264.961" y2="325.979" gradientUnits="userSpaceOnUse"><stop stop-color="#5194E2"/><stop offset="1" stop-color="#36CEF0"/></linearGradient><linearGradient id="paint12_linear_351_3298" x1="232.502" y1="444.846" x2="193.139" y2="222.951" gradientUnits="userSpaceOnUse"><stop stop-color="#6CA9D6"/><stop offset=".557" stop-color="#47CAD5"/><stop offset="1" stop-color="#A0BB69"/></linearGradient><linearGradient id="paint13_linear_351_3298" x1="418.673" y1="444.846" x2="458.036" y2="222.951" gradientUnits="userSpaceOnUse"><stop stop-color="#6CA9D6"/><stop offset=".557" stop-color="#47CAD5"/><stop offset="1" stop-color="#A0BB69"/></linearGradient><filter id="filter0_f_351_3298" x="45.473" y="101.537" width="328.881" height="444.872" filterUnits="userSpaceOnUse" color-interpolation-filters="sRGB"><feFlood flood-opacity="0" result="BackgroundImageFix"/><feBlend in="SourceGraphic" in2="BackgroundImageFix" result="shape"/><feGaussianBlur stdDeviation="50" result="effect1_foregroundBlur_351_3298"/></filter><filter id="filter1_f_351_3298" x="276.821" y="101.537" width="328.881" height="444.872" filterUnits="userSpaceOnUse" color-interpolation-filters="sRGB"><feFlood flood-opacity="0" result="BackgroundImageFix"/><feBlend in="SourceGraphic" in2="BackgroundImageFix" result="shape"/><feGaussianBlur stdDeviation="50" result="effect1_foregroundBlur_351_3298"/></filter></defs></svg>