<svg width="841" height="839" fill="none" xmlns="http://www.w3.org/2000/svg"><path d="M448.158 475.051l63.503-63.503-89.206-89.207-89.207 89.207 128.518 128.518 128.518-128.518-167.829-167.829-167.83 167.829 207.141 207.141 207.141-207.141-246.452-246.452-246.452 246.452L422.455 658" stroke="url(#paint0_linear_362_1336)" stroke-opacity=".95"/><circle cx="423.359" cy="167" r="9" fill="url(#paint1_linear_362_1336)"/><circle cx="423.359" cy="248.647" r="9" fill="url(#paint2_linear_362_1336)"/><circle cx="462.67" cy="532.898" r="9" fill="url(#paint3_linear_362_1336)"/><circle cx="423.359" cy="327.269" r="9" fill="url(#paint4_linear_362_1336)"/><circle cx="462.67" cy="614.545" r="9" fill="url(#paint5_linear_362_1336)"/><circle cx="505.006" cy="411.94" r="9" fill="url(#paint6_linear_362_1336)"/><circle cx="181.443" cy="411.94" r="9" fill="url(#paint7_linear_362_1336)"/><circle cx="583.628" cy="411.94" r="9" fill="url(#paint8_linear_362_1336)"/><circle cx="260.066" cy="411.94" r="9" fill="url(#paint9_linear_362_1336)"/><circle cx="665.276" cy="411.94" r="9" fill="url(#paint10_linear_362_1336)"/><circle cx="341.712" cy="411.94" r="9" fill="url(#paint11_linear_362_1336)"/><g filter="url(#filter0_f_362_1336)"><path d="M187.514 410.036L338.711 260.35l15.122 316.003-166.319-166.317z" fill="url(#paint12_linear_362_1336)" fill-opacity=".5"/></g><g filter="url(#filter1_f_362_1336)"><path d="M652.384 410.036L501.187 260.35l-15.122 316.003 166.319-166.317z" fill="url(#paint13_linear_362_1336)" fill-opacity=".5"/></g><path d="M416.162 510.802l106.371-43.238-60.738-149.426-149.426 60.738 87.504 215.276 215.275-87.505-114.27-281.124-281.124 114.27L360.79 686.767 707.763 545.73 539.961 132.908 127.139 300.71l167.802 412.823" stroke="#fff" stroke-opacity=".95" opacity=".1"/><defs><linearGradient id="paint0_linear_362_1336" x1="195.856" y1="380.938" x2="654.161" y2="386.764" gradientUnits="userSpaceOnUse"><stop stop-color="#6CA9D6"/><stop offset=".557" stop-color="#47CAD5"/><stop offset="1" stop-color="#A0BB69"/></linearGradient><linearGradient id="paint1_linear_362_1336" x1="423.359" y1="158" x2="423.359" y2="176" gradientUnits="userSpaceOnUse"><stop stop-color="#5194E2"/><stop offset="1" stop-color="#36CEF0"/></linearGradient><linearGradient id="paint2_linear_362_1336" x1="423.359" y1="239.647" x2="423.359" y2="257.647" gradientUnits="userSpaceOnUse"><stop stop-color="#5194E2"/><stop offset="1" stop-color="#36CEF0"/></linearGradient><linearGradient id="paint3_linear_362_1336" x1="462.67" y1="523.898" x2="462.67" y2="541.898" gradientUnits="userSpaceOnUse"><stop stop-color="#5194E2"/><stop offset="1" stop-color="#36CEF0"/></linearGradient><linearGradient id="paint4_linear_362_1336" x1="423.359" y1="318.269" x2="423.359" y2="336.269" gradientUnits="userSpaceOnUse"><stop stop-color="#5194E2"/><stop offset="1" stop-color="#36CEF0"/></linearGradient><linearGradient id="paint5_linear_362_1336" x1="462.67" y1="605.545" x2="462.67" y2="623.545" gradientUnits="userSpaceOnUse"><stop stop-color="#5194E2"/><stop offset="1" stop-color="#36CEF0"/></linearGradient><linearGradient id="paint6_linear_362_1336" x1="505.006" y1="402.94" x2="505.006" y2="420.94" gradientUnits="userSpaceOnUse"><stop stop-color="#5194E2"/><stop offset="1" stop-color="#36CEF0"/></linearGradient><linearGradient id="paint7_linear_362_1336" x1="181.443" y1="402.94" x2="181.443" y2="420.94" gradientUnits="userSpaceOnUse"><stop stop-color="#5194E2"/><stop offset="1" stop-color="#36CEF0"/></linearGradient><linearGradient id="paint8_linear_362_1336" x1="583.628" y1="402.94" x2="583.628" y2="420.94" gradientUnits="userSpaceOnUse"><stop stop-color="#5194E2"/><stop offset="1" stop-color="#36CEF0"/></linearGradient><linearGradient id="paint9_linear_362_1336" x1="260.066" y1="402.94" x2="260.066" y2="420.94" gradientUnits="userSpaceOnUse"><stop stop-color="#5194E2"/><stop offset="1" stop-color="#36CEF0"/></linearGradient><linearGradient id="paint10_linear_362_1336" x1="665.276" y1="402.94" x2="665.276" y2="420.94" gradientUnits="userSpaceOnUse"><stop stop-color="#5194E2"/><stop offset="1" stop-color="#36CEF0"/></linearGradient><linearGradient id="paint11_linear_362_1336" x1="341.712" y1="402.94" x2="341.712" y2="420.94" gradientUnits="userSpaceOnUse"><stop stop-color="#5194E2"/><stop offset="1" stop-color="#36CEF0"/></linearGradient><linearGradient id="paint12_linear_362_1336" x1="299.824" y1="574.336" x2="249.026" y2="287.984" gradientUnits="userSpaceOnUse"><stop stop-color="#6CA9D6"/><stop offset=".557" stop-color="#47CAD5"/><stop offset="1" stop-color="#A0BB69"/></linearGradient><linearGradient id="paint13_linear_362_1336" x1="540.074" y1="574.336" x2="590.872" y2="287.984" gradientUnits="userSpaceOnUse"><stop stop-color="#6CA9D6"/><stop offset=".557" stop-color="#47CAD5"/><stop offset="1" stop-color="#A0BB69"/></linearGradient><filter id="filter0_f_362_1336" x="87.514" y="160.35" width="366.319" height="516.003" filterUnits="userSpaceOnUse" color-interpolation-filters="sRGB"><feFlood flood-opacity="0" result="BackgroundImageFix"/><feBlend in="SourceGraphic" in2="BackgroundImageFix" result="shape"/><feGaussianBlur stdDeviation="50" result="effect1_foregroundBlur_362_1336"/></filter><filter id="filter1_f_362_1336" x="386.065" y="160.35" width="366.319" height="516.003" filterUnits="userSpaceOnUse" color-interpolation-filters="sRGB"><feFlood flood-opacity="0" result="BackgroundImageFix"/><feBlend in="SourceGraphic" in2="BackgroundImageFix" result="shape"/><feGaussianBlur stdDeviation="50" result="effect1_foregroundBlur_362_1336"/></filter></defs></svg>