<svg width="78" height="77" fill="none" xmlns="http://www.w3.org/2000/svg"><path d="M42.553 48.467l9.557-9.557-13.425-13.425L25.26 38.91 44.6 58.252 63.943 38.91 38.684 13.653 13.428 38.91 44.6 70.084 75.775 38.91 38.685 1.82 1.595 38.91 38.685 76" stroke="url(#paint0_linear_349_1017)" stroke-opacity=".95"/><circle cx="38.913" cy="2.048" r="2.048" fill="url(#paint1_linear_349_1017)"/><circle cx="38.913" cy="14.335" r="2.048" fill="url(#paint2_linear_349_1017)"/><circle cx="44.829" cy="57.114" r="2.048" fill="url(#paint3_linear_349_1017)"/><circle cx="38.913" cy="26.168" r="2.048" fill="url(#paint4_linear_349_1017)"/><circle cx="44.829" cy="69.401" r="2.048" fill="url(#paint5_linear_349_1017)"/><circle cx="51.2" cy="38.91" r="2.048" fill="url(#paint6_linear_349_1017)"/><circle cx="2.505" cy="38.91" r="2.048" fill="url(#paint7_linear_349_1017)"/><circle cx="63.032" cy="38.91" r="2.048" fill="url(#paint8_linear_349_1017)"/><circle cx="14.338" cy="38.91" r="2.048" fill="url(#paint9_linear_349_1017)"/><circle cx="75.32" cy="38.91" r="2.048" fill="url(#paint10_linear_349_1017)"/><circle cx="26.625" cy="38.91" r="2.048" fill="url(#paint11_linear_349_1017)"/><defs><linearGradient id="paint0_linear_349_1017" x1="4.583" y1="34.303" x2="73.556" y2="35.18" gradientUnits="userSpaceOnUse"><stop stop-color="#6CA9D6"/><stop offset=".557" stop-color="#47CAD5"/><stop offset="1" stop-color="#A0BB69"/></linearGradient><linearGradient id="paint1_linear_349_1017" x1="38.913" y1="0" x2="38.913" y2="4.096" gradientUnits="userSpaceOnUse"><stop stop-color="#5194E2"/><stop offset="1" stop-color="#36CEF0"/></linearGradient><linearGradient id="paint2_linear_349_1017" x1="38.913" y1="12.287" x2="38.913" y2="16.383" gradientUnits="userSpaceOnUse"><stop stop-color="#5194E2"/><stop offset="1" stop-color="#36CEF0"/></linearGradient><linearGradient id="paint3_linear_349_1017" x1="44.829" y1="55.066" x2="44.829" y2="59.162" gradientUnits="userSpaceOnUse"><stop stop-color="#5194E2"/><stop offset="1" stop-color="#36CEF0"/></linearGradient><linearGradient id="paint4_linear_349_1017" x1="38.913" y1="24.12" x2="38.913" y2="28.216" gradientUnits="userSpaceOnUse"><stop stop-color="#5194E2"/><stop offset="1" stop-color="#36CEF0"/></linearGradient><linearGradient id="paint5_linear_349_1017" x1="44.829" y1="67.353" x2="44.829" y2="71.449" gradientUnits="userSpaceOnUse"><stop stop-color="#5194E2"/><stop offset="1" stop-color="#36CEF0"/></linearGradient><linearGradient id="paint6_linear_349_1017" x1="51.2" y1="36.862" x2="51.2" y2="40.958" gradientUnits="userSpaceOnUse"><stop stop-color="#5194E2"/><stop offset="1" stop-color="#36CEF0"/></linearGradient><linearGradient id="paint7_linear_349_1017" x1="2.505" y1="36.862" x2="2.505" y2="40.958" gradientUnits="userSpaceOnUse"><stop stop-color="#5194E2"/><stop offset="1" stop-color="#36CEF0"/></linearGradient><linearGradient id="paint8_linear_349_1017" x1="63.032" y1="36.862" x2="63.032" y2="40.958" gradientUnits="userSpaceOnUse"><stop stop-color="#5194E2"/><stop offset="1" stop-color="#36CEF0"/></linearGradient><linearGradient id="paint9_linear_349_1017" x1="14.338" y1="36.862" x2="14.338" y2="40.958" gradientUnits="userSpaceOnUse"><stop stop-color="#5194E2"/><stop offset="1" stop-color="#36CEF0"/></linearGradient><linearGradient id="paint10_linear_349_1017" x1="75.32" y1="36.862" x2="75.32" y2="40.958" gradientUnits="userSpaceOnUse"><stop stop-color="#5194E2"/><stop offset="1" stop-color="#36CEF0"/></linearGradient><linearGradient id="paint11_linear_349_1017" x1="26.625" y1="36.862" x2="26.625" y2="40.958" gradientUnits="userSpaceOnUse"><stop stop-color="#5194E2"/><stop offset="1" stop-color="#36CEF0"/></linearGradient></defs></svg>