<svg width="32" height="31" fill="none" xmlns="http://www.w3.org/2000/svg"><path d="M25.952 10.28a.539.539 0 00-.564-.197.541.541 0 00-.19.09l-8.695 6.42a.18.18 0 01-.216 0l-8.524-6.449a.54.54 0 00-.862.495.529.529 0 00.208.353l6.702 5.072-6.629 4.942a.54.54 0 00-.201.562.535.535 0 00.447.4.55.55 0 00.403-.101l6.87-5.131.93.711a1.267 1.267 0 001.515.01l.977-.721 6.95 5.13a.543.543 0 00.846-.296.527.527 0 00-.2-.558l-6.695-4.95 6.819-5.04a.532.532 0 00.11-.741z" fill="#A1BA69"/><path d="M25.281 8H7.671c-.714 0-1.4.281-1.905.781-.505.5-.79 1.178-.79 1.886v10.666c0 .708.285 1.386.79 1.886A2.71 2.71 0 007.672 24h17.61c.714 0 1.4-.281 1.905-.781.506-.5.79-1.178.79-1.886V10.667a2.65 2.65 0 00-.79-1.886A2.71 2.71 0 0025.281 8zm1.617 13.333c0 .425-.17.832-.473 1.132-.303.3-.715.468-1.144.468H7.671c-.428 0-.84-.168-1.143-.468a1.591 1.591 0 01-.473-1.132V10.667c0-.425.17-.832.473-1.132.304-.3.715-.468 1.144-.468h17.61c.428 0 .84.168 1.143.468.303.3.473.707.473 1.132v10.666z" fill="#A1BA69"/></svg>