<svg width="30" height="30" fill="none" xmlns="http://www.w3.org/2000/svg"><path d="M24.634 29.486a90.615 90.615 0 01-19.268 0 5.463 5.463 0 01-4.852-4.852 90.611 90.611 0 010-19.268A5.463 5.463 0 015.366.514a90.611 90.611 0 0119.268 0 5.463 5.463 0 014.852 4.852 90.613 90.613 0 010 19.268 5.462 5.462 0 01-4.852 4.852z" fill="url(#paint0_linear_366_370)"/><path d="M27.855 6.451a4.847 4.847 0 00-4.306-4.306 80.437 80.437 0 00-17.098 0 4.848 4.848 0 00-4.306 4.306 80.435 80.435 0 000 17.098 4.848 4.848 0 004.306 4.306 80.416 80.416 0 0017.098 0 4.847 4.847 0 004.306-4.306 80.402 80.402 0 000-17.098z" fill="url(#paint1_linear_366_370)"/><path d="M.45 24.012c.02.208.041.415.064.622a5.463 5.463 0 004.852 4.853 90.613 90.613 0 0019.268 0 5.462 5.462 0 004.852-4.853c.023-.207.044-.414.065-.622H.45z" fill="url(#paint2_linear_366_370)"/><path d="M20.169 4.996a4.733 4.733 0 00-4.733 4.733v3.535H12.89v4.377l2.547 2.281v10.076a90.792 90.792 0 009.198-.512 5.462 5.462 0 004.852-4.852c.51-4.774.64-9.559.391-14.338l-5.3-5.3H20.17z" fill="url(#paint3_linear_366_370)"/><path d="M15.436 29.998a90.502 90.502 0 005.243-.177V17.64h3.479l.42-4.377h-3.899v-2.78c0-.613.498-1.11 1.112-1.11h2.787V4.995h-4.41a4.733 4.733 0 00-4.732 4.733v3.535H12.89v4.377h2.547v12.358z" fill="#fff"/><defs><linearGradient id="paint0_linear_366_370" x1="9.961" y1="4.218" x2="17.548" y2="20.452" gradientUnits="userSpaceOnUse"><stop stop-color="#3457A0"/><stop offset="1" stop-color="#3B5998"/></linearGradient><linearGradient id="paint1_linear_366_370" x1="20.691" y1="18.91" x2="-5.534" y2=".891" gradientUnits="userSpaceOnUse"><stop stop-color="#3457A0" stop-opacity="0"/><stop offset="1" stop-color="#1F3F77"/></linearGradient><linearGradient id="paint2_linear_366_370" x1="15" y1="25.071" x2="15" y2="29.131" gradientUnits="userSpaceOnUse"><stop stop-color="#3457A0" stop-opacity="0"/><stop offset="1" stop-color="#1F3F77"/></linearGradient><linearGradient id="paint3_linear_366_370" x1="34.44" y1="24.775" x2="13.618" y2="14.275" gradientUnits="userSpaceOnUse"><stop stop-color="#3457A0" stop-opacity="0"/><stop offset=".325" stop-color="#2A4C8D" stop-opacity=".325"/><stop offset=".705" stop-color="#22427D" stop-opacity=".706"/><stop offset="1" stop-color="#1F3F77"/></linearGradient></defs></svg>