<svg width="32" height="31" fill="none" xmlns="http://www.w3.org/2000/svg"><path d="M16.477 14.13c-.94 0-1.858-.267-2.64-.769a4.61 4.61 0 01-1.749-2.049 4.401 4.401 0 01-.27-2.637 4.513 4.513 0 011.3-2.338 4.813 4.813 0 012.432-1.25 4.929 4.929 0 012.744.26c.868.346 1.61.931 2.132 1.682.522.75.8 1.633.8 2.536 0 1.211-.5 2.372-1.39 3.228a4.85 4.85 0 01-3.36 1.338zm0-7.304c-.564 0-1.115.16-1.584.462a2.766 2.766 0 00-1.05 1.229 2.64 2.64 0 00-.162 1.583c.11.531.382 1.019.78 1.402.399.383.907.644 1.46.75a2.957 2.957 0 001.646-.156 2.83 2.83 0 001.28-1.009c.312-.45.48-.98.48-1.522 0-.726-.3-1.423-.835-1.937a2.91 2.91 0 00-2.015-.802zM25.027 26h-17.1a.97.97 0 01-.672-.267.895.895 0 01-.278-.646v-2.74c0-1.936.8-3.794 2.226-5.164a7.759 7.759 0 015.374-2.14h3.8c2.015 0 3.948.77 5.374 2.14 1.425 1.37 2.226 3.228 2.226 5.165v2.739c0 .242-.1.474-.279.646a.97.97 0 01-.671.267zm-16.15-1.826h15.2v-1.826a5.374 5.374 0 00-1.67-3.874 5.82 5.82 0 00-4.03-1.605h-3.8a5.819 5.819 0 00-4.03 1.605 5.372 5.372 0 00-1.67 3.874v1.826z" fill="#A1BA69"/></svg>